<?xml version="1.0" encoding="UTF-8"?><svg id="Layer_1" xmlns="http://www.w3.org/2000/svg" viewBox="0 0 315 56"><defs><style>.cls-1{fill:none;}.cls-2{fill:#ff6200;}.cls-3{fill:#161d26;}</style></defs><rect class="cls-1" width="314" height="56"/><rect class="cls-1" x=".48" y=".0037" width="314.04" height="55.9922"/><path class="cls-2" d="M161.081,29.6043h-.232l-.58,2.8408c-.101.522-.377.7539-.811.7539h-3.828c-.434,0-.754-.3188-.754-.7539V2.0618c0-.4346.32-.7534.754-.7534h4.639c.435,0,.754.3189.754.7534v10.437h.231c1.421-2.6816,3.334-3.9282,5.915-3.9282,4.987,0,8.291,5.0156,8.291,12.5679,0,7.5669-3.304,12.5825-8.291,12.5825-2.638,0-5.044-1.6236-6.088-4.1167ZM165.024,28.5891c2.609,0,4.059-2.6669,4.059-7.4506,0-4.7691-1.45-7.4366-4.059-7.4366-2.639,0-4.117,2.6963-4.117,7.4366,0,4.7548,1.478,7.4506,4.117,7.4506Z"/><path class="cls-2" d="M197.323,9.846v22.5991c0,.4351-.32.7539-.754.7539h-3.827c-.464,0-.71-.29-.812-.7539l-.58-2.8408h-.231c-1.044,2.6958-3.074,4.1167-5.799,4.1167-4.349,0-7.016-3.5659-7.016-9.3936v-14.4814c0-.4346.32-.7534.754-.7534h4.639c.434,0,.754.3188.754.7534v14.0176c0,2.7544,1.101,4.2617,3.188,4.2617,2.32,0,3.537-1.7393,3.537-5.0733v-13.206c0-.4346.32-.7534.754-.7534h4.639c.434,0,.754.3188.754.7534Z"/><path class="cls-2" d="M212.459,15.9202c-.29-1.5942-1.507-2.522-3.16-2.522-1.652,0-2.754.8697-2.754,2.1455,0,1.1885.869,1.9566,2.667,2.4063l3.392.8408c4.204,1.0435,6.002,3.4497,6.002,7.0449,0,4.5518-3.886,7.8858-9.075,7.8858-4.726,0-8.668-2.4644-9.365-7.7119-.057-.4639.174-.7827.638-.8697l4.001-.7539c.523-.1015.813.1162.928.7539.406,2.5367,1.798,3.7544,3.798,3.7544,1.827,0,3.102-.957,3.102-2.5078,0-1.5078-.898-2.3266-2.783-2.7832l-2.522-.6089c-5.103-1.2319-6.755-3.7109-6.755-7.0742,0-4.7109,3.884-7.3491,8.726-7.3491,5.016,0,7.915,2.5801,8.784,6.3056.117.522-.057.8409-.58.9278l-4.174.6958c-.464.0796-.812-.1162-.87-.5801Z"/><path class="cls-2" d="M224.522.0037c1.972,0,3.595,1.3335,3.595,3.5947,0,2.2036-1.623,3.5952-3.595,3.5952s-3.595-1.3916-3.595-3.5952c0-2.2612,1.623-3.5947,3.595-3.5947ZM221.449,32.4451V9.846c0-.4346.319-.7534.754-.7534h4.638c.435,0,.754.3188.754.7534v22.5991c0,.4351-.319.7539-.754.7539h-4.638c-.435,0-.754-.3188-.754-.7539Z"/><path class="cls-2" d="M243.57,8.5701c4.435,0,7.161,3.6528,7.161,9.5381v14.3364c0,.4351-.319.7539-.754.7539h-4.639c-.435,0-.754-.3188-.754-.7539v-13.8725c0-2.812-1.188-4.3775-3.333-4.3775-2.349,0-3.625,1.8262-3.625,5.1895v13.0605c0,.4351-.319.7539-.753.7539h-4.639c-.435,0-.754-.3188-.754-.7539V9.8455c0-.4346.319-.7534.754-.7534h3.827c.435,0,.717.2895.812.7534l.58,2.8413h.231c1.044-2.6308,3.131-4.1167,5.886-4.1167Z"/><path class="cls-2" d="M263.982,8.5701c5.914,0,10.002,5.1314,10.002,12.3941v1.2177c0,.4639-.318.7534-.754.7534h-13.3c.29,3.9429,1.616,5.9434,4.052,5.9434,1.798,0,3.189-.8408,3.711-3.0732.116-.4927.406-.6812.87-.5796l4.29.9565c.493.1089.696.4351.523.9277-1.479,4.2911-4.842,6.6104-9.394,6.6104-6.204,0-10.495-5.0156-10.495-12.4087,0-7.3784,4.348-12.7417,10.495-12.7417ZM267.722,18.8768c-.362-3.5733-1.588-5.4649-3.74-5.4649-2.08,0-3.559,1.9424-3.986,5.4649h7.726Z"/><path class="cls-2" d="M288.135,15.9202c-.29-1.5942-1.508-2.522-3.16-2.522s-2.754.8697-2.754,2.1455c0,1.1885.869,1.9566,2.667,2.4063l3.392.8408c4.204,1.0435,6.002,3.4497,6.002,7.0449,0,4.5518-3.886,7.8858-9.076,7.8858-4.725,0-8.668-2.4644-9.364-7.7119-.057-.4639.174-.7827.638-.8697l4.001-.7539c.522-.1015.812.1162.928.7539.406,2.5367,1.797,3.7544,3.797,3.7544,1.828,0,3.103-.957,3.103-2.5078,0-1.5078-.898-2.3266-2.783-2.7832l-2.523-.6089c-5.102-1.2319-6.755-3.7109-6.755-7.0742,0-4.7109,3.885-7.3491,8.727-7.3491,5.016,0,7.915,2.5801,8.784,6.3056.116.522-.057.8409-.58.9278l-4.175.6958c-.464.0796-.811-.1162-.869-.5801Z"/><path class="cls-2" d="M308.373,15.9202c-.29-1.5942-1.507-2.522-3.16-2.522-1.652,0-2.754.8697-2.754,2.1455,0,1.1885.87,1.9566,2.667,2.4063l3.392.8408c4.204,1.0435,6.002,3.4497,6.002,7.0449,0,4.5518-3.886,7.8858-9.075,7.8858-4.726,0-8.668-2.4644-9.365-7.7119-.057-.4639.174-.7827.638-.8697l4.001-.7539c.523-.1015.813.1162.928.7539.406,2.5367,1.798,3.7544,3.798,3.7544,1.827,0,3.102-.957,3.102-2.5078,0-1.5078-.898-2.3266-2.783-2.7832l-2.522-.6089c-5.103-1.2319-6.755-3.7109-6.755-7.0742,0-4.7109,3.884-7.3491,8.726-7.3491,5.016,0,7.915,2.5801,8.784,6.3056.117.522-.057.8409-.58.9278l-4.174.6958c-.464.0796-.812-.1162-.87-.5801Z"/><path class="cls-3" d="M123.694,33.1991h4.639c.435,0,.753-.3188.753-.7533v-13.0642c0-3.3603,1.276-5.1851,3.624-5.1851,2.146,0,3.335,1.5642,3.335,4.3741v13.8752c0,.4345.319.7533.753.7533h4.639c.435,0,.754-.3188.754-.7533v-14.3388c0-5.8802-2.725-9.5301-7.161-9.5301-2.754,0-4.842,1.4774-5.886,4.1132h-.231l-.58-2.8388c-.087-.4634-.377-.7531-.812-.7531h-3.827c-.435,0-.754.3186-.754.7531v22.5945c0,.4345.319.7533.754.7533ZM105.256,21.1487c0-4.9244,1.449-7.6473,4.059-7.6473,2.638,0,4.117,2.7229,4.117,7.6473s-1.479,7.6473-4.117,7.6473c-2.61,0-4.059-2.7229-4.059-7.6473ZM98.8775,21.1487c0,7.1837,4.4935,12.5717,10.4375,12.5717,5.972,0,10.495-5.388,10.495-12.5717s-4.523-12.5718-10.495-12.5718c-5.944,0-10.4375,5.3878-10.4375,12.5718ZM81.1636,33.1121c3.0135-1.0478,5.3636-1.4773,7.9439-1.4773,2.6092,0,4.5807.3765,7.4798,1.4773.5799.2318,1.0147,0,1.0147-.6083v-3.3313c0-.4924-.2318-.7821-.6668-.9848-2.4642-1.0717-4.6677-1.5353-7.4798-1.5353-.609,0-1.1599.0579-1.6527.145l8.9875-12.3402c.2609-.3477.3479-.6952.3479-1.1008v-3.5051c0-.4345-.3188-.7531-.7537-.7531h-15.2499c-.4347,0-.7538.3186-.7538.7531v3.3603c0,.4345.3191.7531.7538.7531h9.2775l-9.9154,13.8753c-.2608.3477-.3479.6953-.3479,1.1008v3.563c0,.6083.4346.81,1.0149.6083ZM64.2039,25.7834c0-2.7808,1.9713-4.5479,5.1316-4.5479.5217,0,1.0437.058,1.5366.145v1.535c0,4.0266-1.3046,6.2282-3.7111,6.2282-1.7975,0-2.9571-1.3037-2.9571-3.3603ZM64.8127,33.7204c2.8703,0,4.9577-1.4773,6.0014-3.9975h.2318l.5799,2.7229c.0871.4636.377.7533.8118.7533h3.8269c.4349,0,.754-.3188.754-.7533v-14.5704c0-6.0543-3.1312-9.2985-9.0167-9.2985-4.9577,0-8.3206,2.2593-9.3934,6.3439-.145.5504.1161.9558.6088,1.0428l4.0301.6952c.4926.0868.7826-.1739.9276-.6952.5219-1.8541,1.6815-2.8099,3.4211-2.8099,2.2033,0,3.2761,1.4194,3.2761,4.3741v.6083c-.6669-.145-1.4787-.2027-2.4063-.2027-6.4943,0-10.5821,3.3312-10.5821,8.5452,0,4.3161,2.7832,7.2418,6.929,7.2418ZM80.7005,39.1953c.2907.6659,1.1305.6663,2.4353.4056,3.4791-.7533,7.8857-.8113,8.6395.2316.7249,1.0719-.8697,5.1853-2.7542,8.1977-.6958,1.1587-.9858,1.8829-.4058,2.4333.1449.1739.3479.2318.5799.2607.6958,0,1.5945-.6952,2.4353-1.4774,1.8263-1.5932,3.2471-3.6209,4.0299-5.9093.7826-2.2015,1.1596-5.301.3479-6.4886-.7828-1.1298-3.827-1.8829-6.1755-1.8538-2.4642,0-4.8416.6083-6.987,1.7379-1.3336.7243-2.5502,1.5349-2.1453,2.4623ZM16.3671,37.9786c.1996.6094.6667,1.3614,1.3625,2.2304,8.9006,10.9788,23.2226,15.7873,37.0518,15.7873,12.0899,0,23.7737-3.6498,31.1956-10.0807,1.2757-1.1296,1.9425-2.0277,1.9425-2.7228,0-.2898-.1159-.5216-.3191-.7531-.6376-.6663-1.5945-.1739-2.7541.4345-6.9002,3.6209-17.5112,6.112-28.7891,6.112-12.7276,0-26.3538-3.1574-36.6751-11.471-.9855-.7821-2.0583-1.5643-2.7832-.9849-.2609.2028-.4971.6387-.2318,1.4483ZM23.963,33.1991h4.6387c.4349,0,.7538-.3188.7538-.7533v-13.0642c0-3.3603,1.1887-5.1851,3.4499-5.1851,2.0586,0,3.1603,1.5642,3.1603,4.3741v13.8752c0,.4345.3188.7533.7537.7533h4.6387c.4349,0,.754-.3188.754-.7533v-13.0642c0-3.3603,1.1884-5.1851,3.4499-5.1851,2.0584,0,3.1603,1.5642,3.1603,4.3741v13.8752c0,.4345.3188.7533.7537.7533h4.6387c.4349,0,.7537-.3188.7537-.7533v-14.3388c0-5.8802-2.6382-9.5301-6.9869-9.5301-2.6383,0-4.7257,1.4194-6.4364,4.3449h-.232c-1.1017-2.7519-3.218-4.3449-6.0882-4.3449-2.6674,0-4.6678,1.4774-5.7115,4.1132h-.232l-.5797-2.8388c-.087-.4634-.377-.7531-.8119-.7531h-3.8268c-.4349,0-.7539.3186-.7539.7531v22.5945c0,.4345.319.7533.7539.7533ZM6.8002,25.7834c0-2.7808,1.9713-4.5479,5.1316-4.5479.5217,0,1.0437.058,1.5366.145v1.535c0,4.0266-1.3046,6.2282-3.7111,6.2282-1.7975,0-2.9571-1.3037-2.9571-3.3603ZM7.409,33.7204c2.8703,0,4.9577-1.4773,6.0014-3.9975h.2318l.5799,2.7229c.0871.4636.377.7533.8117.7533h3.827c.4349,0,.7538-.3188.7538-.7533v-14.5704c0-6.0543-3.131-9.2985-9.0165-9.2985-4.9577,0-8.3206,2.2593-9.3934,6.3439-.145.5504.1161.9558.6088,1.0428l4.0301.6952c.4927.0868.7826-.1739.9276-.6952.522-1.8541,1.6816-2.8099,3.4211-2.8099,2.2033,0,3.2761,1.4194,3.2761,4.3741v.6083c-.667-.145-1.4787-.2027-2.4065-.2027C4.5678,17.9334.48,21.2646.48,26.4786c0,4.3161,2.7832,7.2418,6.929,7.2418Z"/></svg>