<svg width="100" height="100" viewBox="0 0 100 100" fill="none" xmlns="http://www.w3.org/2000/svg">
<path d="M100 0H0V100H100V0Z" fill="#c82415"/>
<path d="M34.2676 32.0227C39.9789 32.0227 45.2114 33.2508 45.2114 39.9789C45.2114 43.9404 42.5968 46.9116 37.1497 47.9317V48.1463C42.3294 48.7868 46.9215 50.8171 46.9215 56.9047C46.9215 60.0541 45.7991 62.3485 43.9305 64.0586C41.4215 66.2474 37.6844 67.2609 33.0362 67.2609H19.0486V66.2474C23.2643 65.8743 23.4261 65.8182 23.4261 62.989V36.2814C23.4261 33.3961 23.2643 33.396 19.0486 33.023V32.0227H34.2676ZM28.3946 47.8261H32.6137C37.8462 47.8261 39.9789 45.4227 39.9789 40.4047C39.9789 34.6373 35.9216 33.089 31.9171 33.089C28.4474 33.089 28.3946 33.4192 28.3946 35.6013V47.8261ZM28.3946 62.2957C28.3946 65.4452 28.6091 66.1946 32.6665 66.1946C37.1496 66.1946 41.4744 63.5238 41.4744 57.3834C41.4744 51.7249 39.071 48.9485 32.7721 48.9485H28.3946V62.2957Z" fill="white"/>
<path d="M59.8429 62.9758C59.8429 65.805 59.8957 65.914 64.2732 66.2342V67.2477H50.2856V66.2342C54.7159 65.9041 54.8249 65.805 54.8249 62.9758V36.2814C54.8249 33.3961 54.7159 33.3432 50.2856 33.023V32.0227H64.8608C73.6159 32.0227 76.6069 35.1193 76.6069 40.5665C76.6069 45.7991 72.7114 48.5194 68.0235 49.107V49.4371C73.6358 50.718 75.4449 53.5506 76.4056 58.9944C77.0658 63.2135 77.6897 65.8281 81.7471 66.2573V67.2708H77.7855C74.3158 67.2708 72.2855 65.7753 71.6451 62.4641C71.1664 59.8495 70.79 57.6607 70.3245 54.9899C69.5751 51.2 68.0829 50.038 63.329 50.038H59.8594L59.8429 62.9758ZM59.8429 48.9353H63.3126C69.0271 48.9353 71.2687 46.3702 71.2687 41.032C71.2687 35.0533 67.3071 33.0758 63.5271 33.0758C60.2258 33.0758 59.8429 33.4522 59.8429 35.5881V48.9353Z" fill="white"/>
</svg>
